<svg xmlns="http://www.w3.org/2000/svg" width="155" height="44" viewBox="0 0 155 44">
  <g id="Group_42026" data-name="Group 42026" transform="translate(-103 -448)">
    <g id="Group_41979" data-name="Group 41979">
      <g id="Group_3" data-name="Group 3" transform="translate(-19 -5)">
        <g id="Group_1" data-name="Group 1">
          <rect id="Rectangle_1" data-name="Rectangle 1" width="155" height="44" rx="15" transform="translate(122 453)" fill="#4654d8"/>
          <text id="Descárgala_" data-name="Descárgala " transform="translate(169 456)" fill="#fff" font-size="14" font-family="SegoeUI-Semilight, Segoe UI" font-weight="300"><tspan x="0" y="15">Descárgala </tspan></text>
          <text id="Directo_Aquí" data-name="Directo Aquí" transform="translate(169 489)" fill="#fff" font-size="16" font-family="SegoeUI-Semibold, Segoe UI" font-weight="600"><tspan x="0" y="0">Directo Aquí</tspan></text>
        </g>
      </g>
      <g id="Layer_2" data-name="Layer 2" transform="translate(113.977 456.679)">
        <g id="Layer_1" data-name="Layer 1" transform="translate(0.023)">
          <path id="Path_7" data-name="Path 7" d="M17.87,12.911a5.545,5.545,0,0,1,2.807-4.643,6.175,6.175,0,0,0-4.8-2.387c-2.044-.177-4,1.105-5,1.105-1.047,0-2.617-1.105-4.329-1.061A6.5,6.5,0,0,0,1.124,8.976C-1.207,12.69.554,18.217,2.79,21.223c1.094,1.459,2.426,3.139,4.14,3.1,1.665-.044,2.284-1.017,4.281-1.017s2.568,1.018,4.328.973,2.9-1.5,4-3.007a12.842,12.842,0,0,0,1.808-3.449,5.477,5.477,0,0,1-3.473-4.908Zm-3.282-9.02A5.293,5.293,0,0,0,15.968,0a5.843,5.843,0,0,0-3.854,1.857,4.919,4.919,0,0,0-1.38,3.758A5.089,5.089,0,0,0,14.588,3.891Z" transform="translate(-0.023)" fill="#fff"/>
        </g>
      </g>
    </g>
  </g>
</svg>
