<svg id="Layer_1" data-name="Layer 1" xmlns="http://www.w3.org/2000/svg" viewBox="0 0 155 44"><defs><style>.cls-1{fill:#4654d8;}.cls-2{isolation:isolate;}.cls-3{fill:#fff;}</style></defs><g id="Group_42026" data-name="Group 42026"><g id="Group_41979" data-name="Group 41979"><g id="Group_3" data-name="Group 3"><g id="Group_1" data-name="Group 1"><rect id="Rectangle_1" data-name="Rectangle 1" class="cls-1" width="155" height="44" rx="15"/><g id="Descárgala_" data-name="Descárgala " class="cls-2"><g class="cls-2"><path class="cls-3" d="M48.3,18V8.2h2.4a5.1,5.1,0,0,1,3.7,1.2A4.5,4.5,0,0,1,55.7,13a4.9,4.9,0,0,1-1.4,3.6A5,5,0,0,1,50.6,18Zm.6-9.2v8.6h1.6a4.9,4.9,0,0,0,3.3-1.1A4.5,4.5,0,0,0,55,13c0-2.8-1.5-4.2-4.4-4.2Z"/><path class="cls-3" d="M57.7,14.5a3.3,3.3,0,0,0,.7,2.3,2.2,2.2,0,0,0,1.8.8,3.7,3.7,0,0,0,2.3-.9v.7a4.1,4.1,0,0,1-2.4.8,2.9,2.9,0,0,1-2.2-1,3.8,3.8,0,0,1-.9-2.7,3.7,3.7,0,0,1,.9-2.6,3,3,0,0,1,2.3-1.1,2.4,2.4,0,0,1,2,.9,4.1,4.1,0,0,1,.7,2.5v.3Zm4.5-.5a2.5,2.5,0,0,0-.6-1.9,1.5,1.5,0,0,0-1.4-.7,2.2,2.2,0,0,0-1.7.7,3.1,3.1,0,0,0-.8,1.9Z"/><path class="cls-3" d="M64.3,17.7v-.8l.8.5.9.2c1.1,0,1.6-.5,1.6-1.3a1,1,0,0,0-.3-.8,3.5,3.5,0,0,0-1.2-.7,4.2,4.2,0,0,1-1.4-.9,1.6,1.6,0,0,1-.4-1.2,1.6,1.6,0,0,1,.6-1.3,2.5,2.5,0,0,1,1.7-.6,3.3,3.3,0,0,1,1.5.4v.7a3.3,3.3,0,0,0-1.6-.5,1.4,1.4,0,0,0-1.1.4,1.1,1.1,0,0,0-.5.9,1.1,1.1,0,0,0,.3.8,3.1,3.1,0,0,0,1.2.7,8.3,8.3,0,0,1,1.5.9,1.6,1.6,0,0,1,.4,1.2,1.6,1.6,0,0,1-.6,1.3,2.4,2.4,0,0,1-1.8.6A2.8,2.8,0,0,1,64.3,17.7Z"/><path class="cls-3" d="M74.6,17.7a3.6,3.6,0,0,1-1.9.5,3.3,3.3,0,0,1-2.3-1,3.7,3.7,0,0,1-.8-2.6,4,4,0,0,1,.9-2.7,3.5,3.5,0,0,1,2.6-1.1,2.8,2.8,0,0,1,1.5.4v.7a3,3,0,0,0-1.6-.5,2.4,2.4,0,0,0-2,.9,3.4,3.4,0,0,0-.8,2.3,3.2,3.2,0,0,0,.7,2.2,2.6,2.6,0,0,0,1.9.8,2.8,2.8,0,0,0,1.8-.6Z"/><path class="cls-3" d="M80.5,18V16.6h-.1a2,2,0,0,1-.9,1.1,2.7,2.7,0,0,1-1.5.5,1.9,1.9,0,0,1-1.5-.6,1.8,1.8,0,0,1-.6-1.4c0-1.2.8-2,2.4-2.2l2.2-.3c0-1.5-.6-2.3-1.7-2.3a3.5,3.5,0,0,0-2.3.9v-.7l1.1-.6,1.2-.2a2.4,2.4,0,0,1,1.7.7,2.7,2.7,0,0,1,.6,1.9V18Zm-2-3.5A3.7,3.7,0,0,0,77,15a1.5,1.5,0,0,0-.5,1.2,1.4,1.4,0,0,0,.5,1,1.2,1.2,0,0,0,1.1.4,2.3,2.3,0,0,0,1.7-.8,2.9,2.9,0,0,0,.7-1.9v-.7Zm-.3-4.6h-.6l1.6-2.3h.7Z"/><path class="cls-3" d="M86.5,11.7a1.1,1.1,0,0,0-.7-.3,1.5,1.5,0,0,0-1.4.9,4.3,4.3,0,0,0-.6,2.4V18h-.6V11h.6v1.6h0a2.4,2.4,0,0,1,.8-1.3,1.6,1.6,0,0,1,1.2-.4h.7Z"/><path class="cls-3" d="M93.1,17.5a4.6,4.6,0,0,1-.8,2.9,3.7,3.7,0,0,1-2.7.9,5.4,5.4,0,0,1-2.1-.5v-.7a4.2,4.2,0,0,0,2.1.6c1.9,0,2.9-1,2.9-3v-1h0A2.7,2.7,0,0,1,90,18.2a2.7,2.7,0,0,1-2.2-1,4,4,0,0,1-.8-2.6,4,4,0,0,1,.9-2.7,3,3,0,0,1,2.3-1.1,2.5,2.5,0,0,1,2.3,1.3h0V11h.6Zm-.6-3.8a2.3,2.3,0,0,0-.6-1.6,2.1,2.1,0,0,0-1.7-.7,2.3,2.3,0,0,0-1.8.9,3.3,3.3,0,0,0-.7,2.3,3.6,3.6,0,0,0,.6,2.2,2.3,2.3,0,0,0,1.7.8,2.1,2.1,0,0,0,1.8-.7,2.4,2.4,0,0,0,.7-1.8Z"/><path class="cls-3" d="M99.6,18V16.6h-.1a2,2,0,0,1-.9,1.1,2.7,2.7,0,0,1-1.5.5,1.9,1.9,0,0,1-1.5-.6,1.8,1.8,0,0,1-.6-1.4c0-1.2.8-2,2.4-2.2l2.2-.3c0-1.5-.6-2.3-1.7-2.3a3.5,3.5,0,0,0-2.3.9v-.7l1.1-.6,1.2-.2a2.4,2.4,0,0,1,1.7.7,2.7,2.7,0,0,1,.6,1.9V18Zm-2-3.5a3.7,3.7,0,0,0-1.5.5,1.5,1.5,0,0,0-.5,1.2,1.4,1.4,0,0,0,.5,1,1.2,1.2,0,0,0,1.1.4,2.3,2.3,0,0,0,1.7-.8,2.9,2.9,0,0,0,.7-1.9v-.7Z"/><path class="cls-3" d="M102.3,18V7.6h.6V18Z"/><path class="cls-3" d="M109.3,18V16.6h0a1.8,1.8,0,0,1-1,1.1,2.4,2.4,0,0,1-1.4.5,2.3,2.3,0,0,1-1.6-.6,2.2,2.2,0,0,1-.5-1.4c0-1.2.8-2,2.4-2.2l2.1-.3c0-1.5-.5-2.3-1.7-2.3a3.5,3.5,0,0,0-2.2.9v-.7l1.1-.6,1.2-.2a2.4,2.4,0,0,1,1.7.7,2.7,2.7,0,0,1,.6,1.9V18Zm-1.9-3.5a3.7,3.7,0,0,0-1.5.5,1.5,1.5,0,0,0-.5,1.2,1.8,1.8,0,0,0,.4,1,1.6,1.6,0,0,0,1.2.4,2.3,2.3,0,0,0,1.7-.8,2.9,2.9,0,0,0,.6-1.9v-.7Z"/></g></g><g id="Directo_Aquí" data-name="Directo Aquí" class="cls-2"><g class="cls-2"><path class="cls-3" d="M48.4,36V24.8h3.2c4.1,0,6.2,1.8,6.2,5.5a5.3,5.3,0,0,1-1.7,4.1A6.5,6.5,0,0,1,51.5,36Zm1.8-9.6v8h1.5a4.5,4.5,0,0,0,3.1-1,4.5,4.5,0,0,0,1.1-3.1c0-2.6-1.4-3.9-4.1-3.9Z"/><path class="cls-3" d="M60.6,26.3a1.1,1.1,0,0,1-.8-.3,1,1,0,0,1,0-1.4,1.1,1.1,0,0,1,.8-.3,1.3,1.3,0,0,1,.8.3,1,1,0,0,1,0,1.4A1.3,1.3,0,0,1,60.6,26.3Zm.9,9.7H59.7V28h1.8Z"/><path class="cls-3" d="M68.5,29.7l-1-.2a1.5,1.5,0,0,0-1.3.7,3,3,0,0,0-.6,2V36H63.8V28h1.8v1.6h.1a2.9,2.9,0,0,1,.8-1.3,1.9,1.9,0,0,1,1.2-.4h.8Z"/><path class="cls-3" d="M76.4,32.5H70.9a2.9,2.9,0,0,0,.7,1.7,2.8,2.8,0,0,0,1.8.6,4.1,4.1,0,0,0,2.4-.8v1.5a5.2,5.2,0,0,1-2.9.7,3.8,3.8,0,0,1-2.8-1.1,4.3,4.3,0,0,1-1-3.1,4.4,4.4,0,0,1,1.1-3A3.6,3.6,0,0,1,73,27.8a3.3,3.3,0,0,1,2.5,1.1,4.2,4.2,0,0,1,.9,2.9Zm-1.8-1.3a2.4,2.4,0,0,0-.4-1.5,1.5,1.5,0,0,0-1.3-.6,1.8,1.8,0,0,0-1.3.6,2.6,2.6,0,0,0-.7,1.5Z"/><path class="cls-3" d="M83.8,35.6a4.4,4.4,0,0,1-5.1-.5,4.2,4.2,0,0,1-1.1-2.9A4.4,4.4,0,0,1,78.8,29a4.1,4.1,0,0,1,3.1-1.2,4.2,4.2,0,0,1,2,.4v1.7a3.2,3.2,0,0,0-1.8-.6,2.5,2.5,0,0,0-1.9.7,3,3,0,0,0-.7,2.1,2.7,2.7,0,0,0,.6,1.9,2.6,2.6,0,0,0,1.9.8,2.9,2.9,0,0,0,1.8-.7Z"/><path class="cls-3" d="M89.9,35.9a3.2,3.2,0,0,1-1.4.3,2.1,2.1,0,0,1-2.4-2.3V29.4H84.8V28h1.3V26.1l1.8-.5V28h2v1.4h-2v4a1.3,1.3,0,0,0,.3,1,1.2,1.2,0,0,0,.9.3,1.2,1.2,0,0,0,.8-.2Z"/><path class="cls-3" d="M94.9,36.2a4.2,4.2,0,0,1-3-1.1,4.4,4.4,0,0,1-1.1-3A4.4,4.4,0,0,1,92,28.9a4.3,4.3,0,0,1,3.1-1.1A4,4,0,0,1,98,28.9,4.3,4.3,0,0,1,99,32a3.9,3.9,0,0,1-1.1,3A3.9,3.9,0,0,1,94.9,36.2Zm.1-6.9a2.1,2.1,0,0,0-1.7.7,3.2,3.2,0,0,0-.6,2,3,3,0,0,0,.6,2,2.1,2.1,0,0,0,1.7.8,1.9,1.9,0,0,0,1.6-.8,2.8,2.8,0,0,0,.6-2,3,3,0,0,0-.6-2A1.9,1.9,0,0,0,95,29.3Z"/><path class="cls-3" d="M114.7,36h-2.1l-1-2.9h-4.4l-.9,2.9h-2.1l4.2-11.2h2.1Zm-3.6-4.4-1.5-4.4a6.4,6.4,0,0,1-.2-.7h0c0,.3-.1.5-.1.7l-1.6,4.4Z"/><path class="cls-3" d="M123.3,39.7h-1.8V34.6h0a2.9,2.9,0,0,1-2.7,1.6,3,3,0,0,1-2.4-1.1,4.4,4.4,0,0,1-.9-2.9,4.7,4.7,0,0,1,1-3.2,3.1,3.1,0,0,1,2.6-1.2,2.5,2.5,0,0,1,2.4,1.3h0V28h1.8Zm-1.8-7.3V31.3a2,2,0,0,0-.6-1.4,1.7,1.7,0,0,0-1.4-.6,2,2,0,0,0-1.6.7,4.1,4.1,0,0,0-.5,2.1,3,3,0,0,0,.5,2,2,2,0,0,0,3,0A2.7,2.7,0,0,0,121.5,32.4Z"/><path class="cls-3" d="M132.6,36h-1.8V34.7h0a2.6,2.6,0,0,1-2.5,1.5c-1.8,0-2.8-1.1-2.8-3.4V28h1.8v4.6c0,1.4.6,2.2,1.7,2.2a1.6,1.6,0,0,0,1.3-.6,2.2,2.2,0,0,0,.5-1.6V28h1.8Z"/><path class="cls-3" d="M138.1,23.9l-2.2,2.6h-1.4l1.9-2.6ZM136.8,36H135V28h1.8Z"/></g></g></g></g><g id="Layer_2" data-name="Layer 2"><g id="Layer_1-2" data-name="Layer 1"><path id="Path_7" data-name="Path 7" class="cls-3" d="M28.8,21.6a5.9,5.9,0,0,1,2.9-4.7,6.5,6.5,0,0,0-4.8-2.3c-2.1-.2-4,1.1-5,1.1s-2.7-1.1-4.4-1.1a6.4,6.4,0,0,0-5.4,3.1c-2.3,3.7-.6,9.2,1.7,12.2S16.2,33,17.9,33s2.3-1,4.3-1,2.6,1,4.3,1,2.9-1.5,4-3a12.9,12.9,0,0,0,1.8-3.5,5.3,5.3,0,0,1-3.4-4.9Zm-3.2-9a5.6,5.6,0,0,0,1.3-3.9,6.2,6.2,0,0,0-3.8,1.8,4.9,4.9,0,0,0-1.4,3.8A5.2,5.2,0,0,0,25.6,12.6Z"/></g></g></g></g></svg>