<svg xmlns="http://www.w3.org/2000/svg" xmlns:xlink="http://www.w3.org/1999/xlink" width="155" height="44" viewBox="0 0 155 44">
  <defs>
    <linearGradient id="linear-gradient" x1="0.295" y1="-0.061" x2="0.551" y2="0.922" gradientUnits="objectBoundingBox">
      <stop offset="0" stop-color="#006884"/>
      <stop offset="1" stop-color="#8ad1d0"/>
    </linearGradient>
    <linearGradient id="linear-gradient-2" x1="-0.075" y1="0.158" x2="0.915" y2="0.863" gradientUnits="objectBoundingBox">
      <stop offset="0" stop-color="#24bbb6"/>
      <stop offset="1" stop-color="#dbe692"/>
    </linearGradient>
    <linearGradient id="linear-gradient-3" x1="0.499" y1="1.058" x2="0.499" y2="-0.031" gradientUnits="objectBoundingBox">
      <stop offset="0" stop-color="#fcc072"/>
      <stop offset="1" stop-color="#f58a5b"/>
    </linearGradient>
    <linearGradient id="linear-gradient-4" x1="0.112" y1="1.178" x2="0.904" y2="0.121" gradientUnits="objectBoundingBox">
      <stop offset="0" stop-color="#712b8f"/>
      <stop offset="1" stop-color="#ea1d27"/>
    </linearGradient>
  </defs>
  <g id="Group_42025" data-name="Group 42025" transform="translate(-103 -369)">
    <g id="Group_41978" data-name="Group 41978">
      <g id="Group_1" data-name="Group 1" transform="translate(-19 -84)">
        <rect id="Rectangle_1" data-name="Rectangle 1" width="155" height="44" rx="15" transform="translate(122 453)" fill="#4654d8"/>
        <text id="Disponible_en" data-name="Disponible en" transform="translate(169 456)" fill="#fff" font-size="14" font-family="SegoeUI-Semilight, Segoe UI" font-weight="300"><tspan x="0" y="15">Disponible en</tspan></text>
        <text id="Google_Play" data-name="Google Play" transform="translate(169 489)" fill="#fff" font-size="16" font-family="SegoeUI-Semibold, Segoe UI" font-weight="600"><tspan x="0" y="0">Google Play</tspan></text>
      </g>
      <g id="Group_41976" data-name="Group 41976" transform="translate(-5.8)">
        <path id="Path_3" data-name="Path 3" d="M195.3,38.1V27.6a1.1,1.1,0,0,1,1-1.1,1.493,1.493,0,0,1,1,.3l19.3,10.6a.833.833,0,0,1,0,1.6L197.3,49.6a1.964,1.964,0,0,1-1,.3,1.1,1.1,0,0,1-1-1.1Z" transform="translate(-75.5 353.5)" fill-rule="evenodd" fill="url(#linear-gradient)"/>
        <path id="Path_4" data-name="Path 4" d="M207.8,38.2,196.1,26.5h.2a1.493,1.493,0,0,1,1,.3l14.2,7.8Z" transform="translate(-75.5 353.5)" fill-rule="evenodd" fill="url(#linear-gradient-2)"/>
        <path id="Path_5" data-name="Path 5" d="M211.4,41.7l-3.6-3.6,3.7-3.7,5.1,2.8a.833.833,0,0,1,0,1.6Z" transform="translate(-75.5 353.5)" fill-rule="evenodd" fill="url(#linear-gradient-3)"/>
        <path id="Path_6" data-name="Path 6" d="M196.2,49.7h0l11.6-11.6,3.6,3.6-14.1,7.7a1.609,1.609,0,0,1-1.1.3Z" transform="translate(-75.5 353.5)" fill-rule="evenodd" fill="url(#linear-gradient-4)"/>
      </g>
    </g>
  </g>
</svg>
