<svg id="Layer_1" data-name="Layer 1" xmlns="http://www.w3.org/2000/svg" xmlns:xlink="http://www.w3.org/1999/xlink" viewBox="0 0 155 44"><defs><style>.cls-1{fill:#4654d8;}.cls-2{isolation:isolate;}.cls-3{fill:#fff;}.cls-4,.cls-5,.cls-6,.cls-7{fill-rule:evenodd;}.cls-4{fill:url(#linear-gradient);}.cls-5{fill:url(#linear-gradient-2);}.cls-6{fill:url(#linear-gradient-3);}.cls-7{fill:url(#linear-gradient-4);}</style><linearGradient id="linear-gradient" x1="-402.44" y1="502.68" x2="-402.18" y2="501.7" gradientTransform="matrix(21.9, 0, 0, -23.4, 8831.25, 11773.88)" gradientUnits="userSpaceOnUse"><stop offset="0" stop-color="#006884"/><stop offset="1" stop-color="#8ad1d0"/></linearGradient><linearGradient id="linear-gradient-2" x1="-394.67" y1="482.08" x2="-393.68" y2="481.38" gradientTransform="matrix(15.4, 0, 0, -11.7, 6088.6, 5654.79)" gradientUnits="userSpaceOnUse"><stop offset="0" stop-color="#24bbb6"/><stop offset="1" stop-color="#dbe692"/></linearGradient><linearGradient id="linear-gradient-3" x1="-376.61" y1="456.6" x2="-376.61" y2="457.69" gradientTransform="matrix(9.4, 0, 0, -7.3, 3568.75, 3359.8)" gradientUnits="userSpaceOnUse"><stop offset="0" stop-color="#fcc072"/><stop offset="1" stop-color="#f58a5b"/></linearGradient><linearGradient id="linear-gradient-4" x1="-394.13" y1="480.73" x2="-393.34" y2="481.79" gradientTransform="matrix(15.2, 0, 0, -11.61, 6004.31, 5616.27)" gradientUnits="userSpaceOnUse"><stop offset="0" stop-color="#712b8f"/><stop offset="1" stop-color="#ea1d27"/></linearGradient></defs><g id="Group_42025" data-name="Group 42025"><g id="Group_41978" data-name="Group 41978"><g id="Group_1" data-name="Group 1"><rect id="Rectangle_1" data-name="Rectangle 1" class="cls-1" width="155" height="44" rx="15"/><g id="Disponible_en" data-name="Disponible en" class="cls-2"><g class="cls-2"><path class="cls-3" d="M48.3,18V8.2h2.4a5.1,5.1,0,0,1,3.7,1.2A4.5,4.5,0,0,1,55.7,13a4.9,4.9,0,0,1-1.4,3.6A5,5,0,0,1,50.6,18Zm.6-9.2v8.6h1.6a4.9,4.9,0,0,0,3.3-1.1A4.5,4.5,0,0,0,55,13c0-2.8-1.5-4.2-4.4-4.2Z"/><path class="cls-3" d="M57.9,9.2h-.4a.5.5,0,0,1-.2-.4l.2-.4h.7a.5.5,0,0,1,.2.4.8.8,0,0,1-.2.4ZM57.6,18V11h.6v7Z"/><path class="cls-3" d="M60.1,17.7v-.8l.8.5.9.2c1.1,0,1.6-.5,1.6-1.3a1,1,0,0,0-.3-.8,2.7,2.7,0,0,0-1.2-.7,4.2,4.2,0,0,1-1.4-.9,1.6,1.6,0,0,1-.4-1.2,1.6,1.6,0,0,1,.6-1.3,2.5,2.5,0,0,1,1.7-.6,3.3,3.3,0,0,1,1.5.4v.7a3.3,3.3,0,0,0-1.6-.5,1.4,1.4,0,0,0-1.1.4,1.1,1.1,0,0,0-.5.9,1.1,1.1,0,0,0,.3.8,3.1,3.1,0,0,0,1.2.7,8.3,8.3,0,0,1,1.5.9,1.6,1.6,0,0,1,.4,1.2,1.6,1.6,0,0,1-.6,1.3,2.4,2.4,0,0,1-1.7.6A2.9,2.9,0,0,1,60.1,17.7Z"/><path class="cls-3" d="M66.5,16.8h0v4.4h-.6V11h.6v1.4h0a2.3,2.3,0,0,1,1.1-1.1,3,3,0,0,1,1.5-.5,2.6,2.6,0,0,1,2.1.9,4.1,4.1,0,0,1,.8,2.5,4.4,4.4,0,0,1-.9,2.9,2.8,2.8,0,0,1-2.3,1.1A2.5,2.5,0,0,1,66.5,16.8Zm0-2.6V15a2.4,2.4,0,0,0,.7,1.8,2.1,2.1,0,0,0,1.7.8,2,2,0,0,0,1.7-.9,3.6,3.6,0,0,0,.7-2.4,3.3,3.3,0,0,0-.6-2.1,2.1,2.1,0,0,0-1.6-.8,2.3,2.3,0,0,0-1.9.8A2.9,2.9,0,0,0,66.5,14.2Z"/><path class="cls-3" d="M76.5,18.2a3.3,3.3,0,0,1-2.4-1,4,4,0,0,1-.9-2.7,4,4,0,0,1,.9-2.7,3.7,3.7,0,0,1,2.5-1,3.3,3.3,0,0,1,2.4,1,4.6,4.6,0,0,1,.8,2.7,4,4,0,0,1-.9,2.7A3.3,3.3,0,0,1,76.5,18.2Zm.1-6.8a2.6,2.6,0,0,0-2,.8,3.6,3.6,0,0,0-.7,2.4,3.2,3.2,0,0,0,.7,2.2,2.4,2.4,0,0,0,1.9.8,2.6,2.6,0,0,0,2-.8,3.9,3.9,0,0,0,.7-2.3,3.7,3.7,0,0,0-.7-2.3A2.6,2.6,0,0,0,76.6,11.4Z"/><path class="cls-3" d="M86.3,18V13.9c0-1.7-.6-2.5-1.8-2.5a2.6,2.6,0,0,0-1.7.7,3.1,3.1,0,0,0-.6,1.9v4h-.6V11h.6v1.3h0a2.5,2.5,0,0,1,2.4-1.5,2,2,0,0,1,1.7.8,3.3,3.3,0,0,1,.6,2.1V18Z"/><path class="cls-3" d="M89.4,9.2H89a.5.5,0,0,1-.2-.4l.2-.4h.7a.5.5,0,0,1,.2.4.8.8,0,0,1-.2.4ZM89,18V11h.7v7Z"/><path class="cls-3" d="M92.6,16.8h-.1V18h-.6V7.6h.6v4.8h.1a2,2,0,0,1,1.1-1.1,2.5,2.5,0,0,1,1.5-.5,2.6,2.6,0,0,1,2.1.9,4.1,4.1,0,0,1,.7,2.5,5,5,0,0,1-.8,2.9,3,3,0,0,1-2.3,1.1A2.5,2.5,0,0,1,92.6,16.8Zm-.1-2.6V15a2.9,2.9,0,0,0,.7,1.8,2.3,2.3,0,0,0,1.8.8,2,2,0,0,0,1.7-.9,4.3,4.3,0,0,0,.7-2.4,3.3,3.3,0,0,0-.6-2.1,2.3,2.3,0,0,0-1.7-.8,2.6,2.6,0,0,0-1.9.8A3.5,3.5,0,0,0,92.5,14.2Z"/><path class="cls-3" d="M99.8,18V7.6h.6V18Z"/><path class="cls-3" d="M102.8,14.5a3.9,3.9,0,0,0,.6,2.3,2.6,2.6,0,0,0,1.9.8,3.7,3.7,0,0,0,2.3-.9v.7a4.6,4.6,0,0,1-2.5.8,2.7,2.7,0,0,1-2.1-1,3.8,3.8,0,0,1-.9-2.7,3.7,3.7,0,0,1,.9-2.6,2.8,2.8,0,0,1,2.3-1.1,2.5,2.5,0,0,1,2,.9,4.9,4.9,0,0,1,.7,2.5v.3Zm4.5-.5a2.5,2.5,0,0,0-.6-1.9,1.6,1.6,0,0,0-1.5-.7,2,2,0,0,0-1.6.7,3.1,3.1,0,0,0-.8,1.9Z"/><path class="cls-3" d="M113.7,14.5a3.3,3.3,0,0,0,.7,2.3,2.2,2.2,0,0,0,1.8.8,3.7,3.7,0,0,0,2.3-.9v.7a4.4,4.4,0,0,1-2.5.8,2.7,2.7,0,0,1-2.1-1,3.8,3.8,0,0,1-.9-2.7,3.7,3.7,0,0,1,.9-2.6,2.8,2.8,0,0,1,2.3-1.1,2.5,2.5,0,0,1,2,.9,4.9,4.9,0,0,1,.7,2.5v.3Zm4.5-.5a2.5,2.5,0,0,0-.6-1.9,1.6,1.6,0,0,0-1.5-.7,2,2,0,0,0-1.6.7,3.1,3.1,0,0,0-.8,1.9Z"/><path class="cls-3" d="M125.4,18V13.9c0-1.7-.6-2.5-1.9-2.5a2.4,2.4,0,0,0-1.6.7,2.6,2.6,0,0,0-.7,1.9v4h-.6V11h.6v1.3h.1a2.5,2.5,0,0,1,2.4-1.5,2.1,2.1,0,0,1,1.7.8,3.3,3.3,0,0,1,.6,2.1V18Z"/></g></g><g id="Google_Play" data-name="Google Play" class="cls-2"><g class="cls-2"><path class="cls-3" d="M57.1,35.2a7.1,7.1,0,0,1-3.9,1,5.2,5.2,0,0,1-4-1.6,5.6,5.6,0,0,1-1.5-4.1,5.7,5.7,0,0,1,1.6-4.2,6.1,6.1,0,0,1,4.3-1.7,7.6,7.6,0,0,1,3.2.6v1.9a5.4,5.4,0,0,0-3.1-.9,3.7,3.7,0,0,0-2.9,1.2,4.1,4.1,0,0,0-1.2,3,4.5,4.5,0,0,0,1,3.1,3.5,3.5,0,0,0,2.7,1.1,4.6,4.6,0,0,0,2-.5V31.5H52.9V29.9h4.2Z"/><path class="cls-3" d="M62.9,36.2a4.2,4.2,0,0,1-3-1.1,4.4,4.4,0,0,1-1.1-3A4.4,4.4,0,0,1,60,28.9a4.3,4.3,0,0,1,3.1-1.1A4,4,0,0,1,66,28.9,4.3,4.3,0,0,1,67,32a3.9,3.9,0,0,1-1.1,3A3.8,3.8,0,0,1,62.9,36.2Zm.1-6.9a2.1,2.1,0,0,0-1.7.7,3.2,3.2,0,0,0-.6,2,3,3,0,0,0,.6,2,2.1,2.1,0,0,0,1.7.8,1.9,1.9,0,0,0,1.6-.8,2.8,2.8,0,0,0,.6-2,3,3,0,0,0-.6-2A1.9,1.9,0,0,0,63,29.3Z"/><path class="cls-3" d="M72.4,36.2a3.8,3.8,0,0,1-4-4.1,4.8,4.8,0,0,1,1.1-3.2,4.5,4.5,0,0,1,3.1-1.1,4.1,4.1,0,0,1,3,1.1,4.3,4.3,0,0,1,1,3.1,4.2,4.2,0,0,1-1.1,3A4.1,4.1,0,0,1,72.4,36.2Zm.1-6.9a2.2,2.2,0,0,0-1.7.7,3.2,3.2,0,0,0-.6,2,2.6,2.6,0,0,0,.7,2,1.9,1.9,0,0,0,1.6.8,2.1,2.1,0,0,0,1.7-.8,2.8,2.8,0,0,0,.5-2,3,3,0,0,0-.5-2A2.1,2.1,0,0,0,72.5,29.3Z"/><path class="cls-3" d="M85.7,35.4c0,2.9-1.4,4.4-4.4,4.4a5.7,5.7,0,0,1-2.7-.6V37.6a4.7,4.7,0,0,0,2.5.7c1.9,0,2.8-.9,2.8-2.8v-.8h0a2.9,2.9,0,0,1-2.7,1.5,3,3,0,0,1-2.4-1.1,4.1,4.1,0,0,1-.9-2.8,5.4,5.4,0,0,1,1-3.3,3.1,3.1,0,0,1,2.6-1.2,2.5,2.5,0,0,1,2.4,1.3h0V28h1.8Zm-1.8-3.1v-1a2.2,2.2,0,0,0-.5-1.4,2,2,0,0,0-1.4-.6,1.9,1.9,0,0,0-1.6.7,3.3,3.3,0,0,0-.6,2.1,3.3,3.3,0,0,0,.5,1.9,1.8,1.8,0,0,0,1.5.7,1.9,1.9,0,0,0,1.5-.6A2.8,2.8,0,0,0,83.9,32.3Z"/><path class="cls-3" d="M89.9,36H88.1V24.2h1.8Z"/><path class="cls-3" d="M99,32.5H93.6a2.1,2.1,0,0,0,.7,1.7,2.4,2.4,0,0,0,1.8.6,4,4,0,0,0,2.3-.8v1.5a5,5,0,0,1-2.9.7,3.4,3.4,0,0,1-2.7-1.1,4.3,4.3,0,0,1-1-3.1,4,4,0,0,1,1.1-3,3.4,3.4,0,0,1,2.7-1.2,3.1,3.1,0,0,1,2.5,1.1,4.2,4.2,0,0,1,.9,2.9Zm-1.7-1.3a2.5,2.5,0,0,0-.5-1.5,1.4,1.4,0,0,0-1.2-.6,1.6,1.6,0,0,0-1.3.6,2.6,2.6,0,0,0-.7,1.5Z"/><path class="cls-3" d="M107.2,31.9V36h-1.8V24.8h3.4a4.7,4.7,0,0,1,3,.9,3,3,0,0,1,1,2.5,3.3,3.3,0,0,1-1.1,2.7,4,4,0,0,1-3,1Zm0-5.6v4.1h1.2a3,3,0,0,0,1.8-.5,1.9,1.9,0,0,0,.7-1.6c0-1.3-.8-2-2.3-2Z"/><path class="cls-3" d="M116.3,36h-1.8V24.2h1.8Z"/><path class="cls-3" d="M124.8,36h-1.7V34.8H123a2.6,2.6,0,0,1-2.4,1.4,2.1,2.1,0,0,1-1.8-.7,1.9,1.9,0,0,1-.7-1.6c0-1.6.9-2.4,2.6-2.7l2.4-.3c0-1.2-.6-1.7-1.6-1.7a3.9,3.9,0,0,0-2.6.9V28.6a5.5,5.5,0,0,1,2.9-.8,2.7,2.7,0,0,1,3,3Zm-1.7-3.9-1.7.2a3.4,3.4,0,0,0-1.2.4,1.3,1.3,0,0,0-.4,1,1.2,1.2,0,0,0,.4.8,1.5,1.5,0,0,0,1,.3,1.6,1.6,0,0,0,1.3-.6,1.8,1.8,0,0,0,.6-1.4Z"/><path class="cls-3" d="M134,28l-3.6,9.3c-.8,1.6-1.8,2.5-3.2,2.5h-.9V38.2h.7a1.7,1.7,0,0,0,1.6-1l.5-1.3-3.2-8h2l1.9,5.8a3.9,3.9,0,0,0,.2.6h0a3.5,3.5,0,0,0,.1-.6l2-5.8Z"/></g></g></g><g id="Group_41976" data-name="Group 41976"><path id="Path_3" data-name="Path 3" class="cls-4" d="M11,22.6V12.1A1.1,1.1,0,0,1,12,11a1.7,1.7,0,0,1,1,.3L32.3,21.9a.9.9,0,0,1,.6,1,.9.9,0,0,1-.6.6L13,34.1a1.7,1.7,0,0,1-1,.3,1.1,1.1,0,0,1-1-1.1Z"/><path id="Path_4" data-name="Path 4" class="cls-5" d="M23.5,22.7,11.8,11H12a1.7,1.7,0,0,1,1,.3l14.2,7.8Z"/><path id="Path_5" data-name="Path 5" class="cls-6" d="M27.1,26.2l-3.6-3.6,3.7-3.7,5.1,2.8a.9.9,0,0,1,.6,1,.9.9,0,0,1-.6.6Z"/><path id="Path_6" data-name="Path 6" class="cls-7" d="M11.9,34.2h0L23.5,22.6l3.6,3.6L13,33.9A2,2,0,0,1,11.9,34.2Z"/></g></g></g></svg>