<svg id="Component_5" data-name="Component 5" xmlns="http://www.w3.org/2000/svg" width="89.703" height="183.617" viewBox="0 0 89.703 183.617">
  <g id="Group_48" data-name="Group 48" transform="translate(14.834)">
    <path id="Path_136" data-name="Path 136" d="M1644.987,459.089c0-6.1-5.755-11.046-14.385-11.046-7.172,0-9.637,3.7-9.637,3.7s-6.779,1.37-6.779,9.248v19.92h28.876V464.506A8.166,8.166,0,0,0,1644.987,459.089Zm-13.4,17.84a7.751,7.751,0,0,1-1.948-.285v4.268h-9.856V469.931c-.067-.176-.134-.365-.2-.563-4.37-.39-4.188-7.143-1.592-7.143a.783.783,0,0,1,.1.007h0c10.915,3.262,18.255-2.083,20.657-5.8,0,2.592,3.069,5.12,4.159,5.35C1642.755,471.048,1635.668,476.929,1631.591,476.929Z" transform="translate(-1612.068 -448.043)" fill="#311643"/>
    <path id="Path_137" data-name="Path 137" d="M1628.273,484.029v-1a7.753,7.753,0,0,0,1.948.285c4.077,0,11.164-5.881,11.325-15.145-1.091-.23-4.159-2.758-4.159-5.35-2.4,3.715-9.742,9.061-20.657,5.8h0a.781.781,0,0,0-.1-.007c-2.6,0-2.778,6.753,1.592,7.143.064.2.131.387.2.563V483.7l-7.719,3.4v8.909h25.652V486.3l-8.076-2.27Z" transform="translate(-1610.698 -454.425)" fill="#fcbeb7"/>
    <path id="Path_138" data-name="Path 138" d="M1643.324,508.78v-9.712l-8.076-2.27v-1a22.876,22.876,0,0,1-6.786-3.424Z" transform="translate(-1617.672 -467.193)" fill="#f9afab"/>
    <ellipse id="Ellipse_23" data-name="Ellipse 23" cx="2.689" cy="2.514" rx="2.689" ry="2.514" transform="translate(9.622 16.533)" fill="#f49795"/>
    <path id="Path_139" data-name="Path 139" d="M1658.211,477.579a17.112,17.112,0,0,1-1.634,4.6,2.516,2.516,0,1,1,.135-5.025A2.806,2.806,0,0,1,1658.211,477.579Z" transform="translate(-1627.708 -460.619)" fill="#f49795"/>
    <g id="Group_43" data-name="Group 43" transform="translate(11.545 10.918)">
      <path id="Path_41601" data-name="Path 41601" d="M3.28.076a3.4,3.4,0,0,1,3.356,3.2,3.029,3.029,0,0,1-3.2,3.052,3.4,3.4,0,0,1-3.356-3.2A3.029,3.029,0,0,1,3.28.076Z" transform="translate(10.083 2.37) rotate(-22.5)" fill="none"/>
      <path id="Path_41602" data-name="Path 41602" d="M3.28.076a3.4,3.4,0,0,1,3.356,3.2,3.029,3.029,0,0,1-3.2,3.052,3.4,3.4,0,0,1-3.356-3.2A3.029,3.029,0,0,1,3.28.076Z" transform="matrix(0.924, -0.383, 0.383, 0.924, 0, 2.37)" fill="none"/>
      <path id="Path_140" data-name="Path 140" d="M1644.45,468.116a3.731,3.731,0,0,0-3.788,3.181,3.113,3.113,0,0,0-2.507,0,3.567,3.567,0,1,0,.019.514,2.613,2.613,0,0,1,2.47,0,3.813,3.813,0,1,0,3.807-3.7Zm-10.083,6.66a3.1,3.1,0,1,1,3.312-3.1A3.214,3.214,0,0,1,1634.367,474.776Zm10.083,0a3.1,3.1,0,1,1,3.312-3.1A3.213,3.213,0,0,1,1644.45,474.776Z" transform="translate(-1630.04 -467.632)" fill="#fff"/>
    </g>
    <g id="Group_46" data-name="Group 46" transform="translate(15.494 13.98)">
      <g id="Group_44" data-name="Group 44" transform="translate(9.92)">
        <path id="Path_141" data-name="Path 141" d="M1653.083,474.624a.527.527,0,0,1-.544-.508v-.95a.545.545,0,0,1,1.087,0v.95A.527.527,0,0,1,1653.083,474.624Z" transform="translate(-1652.539 -472.657)" fill="#311643"/>
      </g>
      <g id="Group_45" data-name="Group 45">
        <path id="Path_142" data-name="Path 142" d="M1636.751,474.624a.527.527,0,0,1-.544-.508v-.95a.545.545,0,0,1,1.087,0v.95A.527.527,0,0,1,1636.751,474.624Z" transform="translate(-1636.207 -472.657)" fill="#311643"/>
      </g>
    </g>
    <g id="Group_47" data-name="Group 47" transform="translate(17.142 21.463)">
      <path id="Path_143" data-name="Path 143" d="M1641.7,487.65a3.242,3.242,0,0,1-2.032-.652,2.624,2.624,0,0,1-.723-.838.227.227,0,0,1,.125-.308.257.257,0,0,1,.329.116h0a2.576,2.576,0,0,0,2.72,1.193.245.245,0,0,1,.276.2.237.237,0,0,1-.219.258A4.385,4.385,0,0,1,1641.7,487.65Z" transform="translate(-1638.921 -485.831)" fill="#311643"/>
    </g>
  </g>
  <path id="Path_144" data-name="Path 144" d="M1670.254,749.449l1.02,3.964,11.122,3.266-1.6-7.23Z" transform="translate(-1619.246 -578.257)" fill="#fcbeb7"/>
  <path id="Path_145" data-name="Path 145" d="M1608.012,749.449l.3,4.9-.693.239-.457,2.1,11.111-3.268.278-3.964Z" transform="translate(-1594.477 -578.257)" fill="#fcbeb7"/>
  <path id="Path_146" data-name="Path 146" d="M1691.633,761.234l-9.042-3.635.463,2.1-11.122-3.266v2.98a2.941,2.941,0,0,0,1.508,2.531l.956,2.557a.589.589,0,0,0,.556.369.571.571,0,0,0,.589-.551v-1.664l7.6,2.215h7.69a1.962,1.962,0,0,0,2.024-1.893h0A1.894,1.894,0,0,0,1691.633,761.234Z" transform="translate(-1619.905 -581.272)" fill="#2f3d6c"/>
  <path id="Path_147" data-name="Path 147" d="M1611.958,759.357l-.01-2.98-11.112,3.3.457-2.1-9.03,3.659a1.894,1.894,0,0,0-1.219,1.743h0a1.963,1.963,0,0,0,2.031,1.887l7.689-.021,7.86-2.314.005,1.742a.572.572,0,0,0,.591.549.588.588,0,0,0,.555-.371l1.037-2.8A2.9,2.9,0,0,0,1611.958,759.357Z" transform="translate(-1588.147 -581.25)" fill="#2f3d6c"/>
  <path id="Path_148" data-name="Path 148" d="M1607.734,573.93l-4.1,16.244a47.761,47.761,0,0,0-1.386,14.33l3.807,69.117h10.542l4.5-71.73,22.429,71.73h10.542L1635.5,573.93Z" transform="translate(-1592.517 -502.429)" fill="#6277d7"/>
  <path id="Path_149" data-name="Path 149" d="M1630.224,510.944c1.872,0,3.369-1.686,4.379-3.393h-10.675C1625.556,509.254,1627.786,510.944,1630.224,510.944Z" transform="translate(-1601.058 -473.752)" fill="#fff"/>
  <path id="Path_150" data-name="Path 150" d="M1636.314,508.423a12.779,12.779,0,0,0-7.06-4.995l-7.075-2.015a11.978,11.978,0,0,1-1.46,3.486c-1.01,1.707-2.507,3.393-4.379,3.393-2.438,0-4.668-1.69-6.3-3.393a21.552,21.552,0,0,1-2.684-3.468l-7.35,3.184a10.435,10.435,0,0,0-6.024,6.82l-5.422,20.392,9.971,0,2.447-7.918,1.409,18.69h27.771l2.523-19.892,6.615,5.564,5.488-7.517Z" transform="translate(-1587.173 -471.1)" fill="#89aeff"/>
  <path id="Path_151" data-name="Path 151" d="M1709.135,494.666l-.423-.066-.066-.242a1.147,1.147,0,0,0-1.049-.816l-5.929-.375-4.124-1.568,2.3-2.687a1.033,1.033,0,0,0-.122-1.476l-4.857,3.5a4.155,4.155,0,0,0-1.161,1.268l-1.335,2.275-.006-.008L1672.1,522.234l2.785,2.379a4.873,4.873,0,0,0,7.369-1.282l13.168-24.685,4.8.427a8.9,8.9,0,0,0,3.206-.3l2.54-.718a.7.7,0,0,0,.485-.955l1.809-.325a.751.751,0,0,0,.63-.641l.031-.273h.111a.624.624,0,0,0,.644-.6h0A.615.615,0,0,0,1709.135,494.666Z" transform="translate(-1619.969 -465.062)" fill="#fcbeb7"/>
  <path id="Path_152" data-name="Path 152" d="M1676.149,535.469l-7.706,5.651,2.218,1.866Z" transform="translate(-1618.535 -485.813)" fill="#4a5ea3"/>
  <g id="Group_49" data-name="Group 49" transform="translate(17.877 30.827)">
    <path id="Path_153" data-name="Path 153" d="M1627.271,511.112a9.571,9.571,0,0,1-4.67-1.306,16.468,16.468,0,0,1-3.647-2.846,23.548,23.548,0,0,1-3.247-4.138l.409-.177a23.148,23.148,0,0,0,3.178,4.035,16.018,16.018,0,0,0,3.543,2.764,9.1,9.1,0,0,0,4.433,1.244,5.8,5.8,0,0,0,3.692-1.281,8.765,8.765,0,0,0,2.256-2.86,15.356,15.356,0,0,0,1.419-4.229l.439.125a15.239,15.239,0,0,1-1.451,4.29,9.2,9.2,0,0,1-2.37,3A6.261,6.261,0,0,1,1627.271,511.112Z" transform="translate(-1615.708 -502.318)" fill="#fff"/>
  </g>
  <ellipse id="Ellipse_26" data-name="Ellipse 26" cx="5.046" cy="4.719" rx="5.046" ry="4.719" transform="translate(40.943 117.22)" fill="#4a5ea3"/>
  <ellipse id="Ellipse_27" data-name="Ellipse 27" cx="5.046" cy="4.719" rx="5.046" ry="4.719" transform="translate(14.505 117.22)" fill="#4a5ea3"/>
  <path id="Path_154" data-name="Path 154" d="M1662.825,509.476a3.37,3.37,0,0,1-1.772.5,3.124,3.124,0,0,1-3.223-3.014,2.82,2.82,0,0,1,.19-1.021A12.746,12.746,0,0,1,1662.825,509.476Z" transform="translate(-1614.368 -473.054)" fill="#4a5ea3"/>
  <path id="Path_155" data-name="Path 155" d="M1604.162,509.365a3.124,3.124,0,0,1-3.223,3.014,3.355,3.355,0,0,1-1.91-.586,10.6,10.6,0,0,1,4.484-4.242A2.879,2.879,0,0,1,1604.162,509.365Z" transform="translate(-1591.282 -473.752)" fill="#4a5ea3"/>
  <path id="Path_41604" data-name="Path 41604" d="M.754,0,23.916.059a.736.736,0,0,1,.756.708l.08,30.684a.727.727,0,0,1-.753.7L.838,32.1a.736.736,0,0,1-.756-.708L0,.706A.727.727,0,0,1,.754,0Z" transform="matrix(0.999, -0.038, 0.038, 0.999, 20.973, 45.128)" fill="#4a5ea3"/>
  <path id="Path_41603" data-name="Path 41603" d="M.754-.005,23.9-.166a.719.719,0,0,1,.749.7l-.227,30.706a.744.744,0,0,1-.759.711l-23.146.16a.719.719,0,0,1-.749-.7L-.005.706A.744.744,0,0,1,.754-.005Z" transform="matrix(0.994, 0.107, -0.107, 0.994, 25.884, 43.535)" fill="#4a5ea3"/>
  <path id="Path_156" data-name="Path 156" d="M1636.622,554.869a1.484,1.484,0,0,0-.541-1.071l-.432-.361-.021-.191a1.525,1.525,0,0,0-1.483-1.319l-2.8-.128,1.475-2.129a.575.575,0,0,0,.084-.482h0a.665.665,0,0,0-.978-.363l-7.971,4.7-26.322-1.255-9.973,0-1.2,3.974a4.67,4.67,0,0,0,5.2,5.78l32.294-3.145,9.183,1.32.409-.1a1.543,1.543,0,0,0,1.2-1.455l.005-.531.016-.006a1.517,1.517,0,0,0,.962-1.435l-.01-.312.338-.274A1.476,1.476,0,0,0,1636.622,554.869Z" transform="translate(-1586.275 -491.542)" fill="#fcbeb7"/>
  <path id="Path_157" data-name="Path 157" d="M1592.487,565.113a3.084,3.084,0,0,1-1.585,2.658,4.742,4.742,0,0,1-4.613-4.277,3.393,3.393,0,0,1,2.857-1.5A3.237,3.237,0,0,1,1592.487,565.113Z" transform="translate(-1586.28 -497.27)" fill="#f9afab"/>
  <path id="Path_158" data-name="Path 158" d="M1683.553,550.519a4.929,4.929,0,0,1-6.523.554,3.268,3.268,0,0,1,3.321-2.785A3.319,3.319,0,0,1,1683.553,550.519Z" transform="translate(-1621.906 -491.351)" fill="#f9afab"/>
  <path id="Path_159" data-name="Path 159" d="M1626.137,583.546s20.563,3.967,20.559,3.948l-.636-3.419-9.039-.913Z" transform="translate(-1601.925 -506.417)" fill="#4a5ea3"/>
  <path id="Path_160" data-name="Path 160" d="M1625.4,527.27l.068,16.295,1.89-16.364Z" transform="translate(-1601.634 -482.241)" fill="#2f3d6c"/>
</svg>
