<svg xmlns="http://www.w3.org/2000/svg" width="229.35" height="82" viewBox="0 0 229.35 82">
  <g id="Group_41981" data-name="Group 41981" transform="translate(-104 -640)">
    <text id="Lucy_in_the_sky_with_diamonds" data-name="Lucy in the sky 
with diamonds" transform="translate(123 671)" fill="#6b78ee" font-size="34" font-family="ProximaNovaA-Regular, Proxima Nova Alt"><tspan x="0" y="0">Lucy</tspan><tspan y="0" font-size="30"> </tspan><tspan y="0" font-size="22">in the sky </tspan><tspan font-size="22"><tspan x="0" y="41">with </tspan><tspan y="41" font-size="34">diamonds</tspan></tspan></text>
    <g id="Layer_1" data-name="Layer 1" transform="translate(340 720.723)">
      <g id="Group_4" data-name="Group 4" transform="translate(-16 -27)" opacity="0.9">
        <path id="Path_8" data-name="Path 8" d="M16.921,7.772a5.063,5.063,0,0,0,2.51-2.207,5.868,5.868,0,0,0,1.092-3.038A2.629,2.629,0,0,0,19.912.6,2.078,2.078,0,0,0,18.383,0a2,2,0,0,0-1.608.848A2.96,2.96,0,0,0,16.1,2.719a2.09,2.09,0,0,0,.578,1.589,1.682,1.682,0,0,0,1.012.563,2.822,2.822,0,0,1-.4.961,4.327,4.327,0,0,1-.887,1.1A1.007,1.007,0,0,0,16.921,7.772Z" transform="translate(-11.173 0.005)" fill="#6b78ee"/>
        <path id="Path_9" data-name="Path 9" d="M.805,7.773A4.308,4.308,0,0,0,2.591,6.52,7.315,7.315,0,0,0,3.918,4.46a5.606,5.606,0,0,0,.489-2.2A2.231,2.231,0,0,0,3.8.609,2.062,2.062,0,0,0,2.276,0,2,2,0,0,0,.667.846,2.934,2.934,0,0,0-.005,2.72,2.07,2.07,0,0,0,.606,4.309a1.668,1.668,0,0,0,1.009.563,2.809,2.809,0,0,1-.419.961A4.17,4.17,0,0,1,.3,6.925a1.04,1.04,0,0,0,.5.848Z" transform="translate(0.008 0.004)" fill="#6b78ee"/>
      </g>
    </g>
    <g id="Layer_1-2" data-name="Layer 1" transform="translate(104 643.72)">
      <g id="Group_5" data-name="Group 5" opacity="0.9">
        <path id="Path_10" data-name="Path 10" d="M20.17,3.648A1.786,1.786,0,0,0,19.1,3.055a2.955,2.955,0,0,1,.431-1A4.4,4.4,0,0,1,20.481.893,1.094,1.094,0,0,0,19.943,0a4.564,4.564,0,0,0-1.892,1.316,7.662,7.662,0,0,0-1.406,2.169A5.9,5.9,0,0,0,16.126,5.8a2.357,2.357,0,0,0,.648,1.739,2.189,2.189,0,0,0,1.62.633,2.124,2.124,0,0,0,1.7-.893A3.078,3.078,0,0,0,20.812,5.3a2.184,2.184,0,0,0-.642-1.656Z" transform="translate(-10.899 0)" fill="#6b78ee"/>
        <path id="Path_11" data-name="Path 11" d="M4.057,3.648a1.786,1.786,0,0,0-1.073-.593,2.955,2.955,0,0,1,.431-1A4.563,4.563,0,0,1,4.355.893,1.068,1.068,0,0,0,3.817,0a5.352,5.352,0,0,0-2.66,2.325A6.127,6.127,0,0,0,0,5.524,2.742,2.742,0,0,0,.648,7.556a2.216,2.216,0,0,0,1.62.633,2.124,2.124,0,0,0,1.7-.893,3.078,3.078,0,0,0,.713-1.974A2.189,2.189,0,0,0,4.057,3.648Z" transform="translate(0 0)" fill="#6b78ee"/>
      </g>
    </g>
  </g>
</svg>
